<svg width="0" height="0" class="hidden">
  <symbol version="1.1" xmlns="http://www.w3.org/2000/svg" viewBox="0 0 32 32" id="x-mobile-menu">
    <title>x-mobile-menu</title>
    <path fill="none" stroke-linejoin="round" stroke-linecap="round" stroke-miterlimit="4" stroke-width="2"  d="M24 8l-16 16"></path>
    <path fill="none" stroke-linejoin="round" stroke-linecap="round" stroke-miterlimit="4" stroke-width="2"  d="M8 8l16 16"></path>
  </symbol>
  <symbol version="1.1" xmlns="http://www.w3.org/2000/svg" viewBox="0 0 32 32" id="x-modal">
    <title>x-modal</title>
    <path fill="none" stroke-linejoin="round" stroke-linecap="round" stroke-miterlimit="4" stroke-width="2.6667" d="M24 8l-16 16"></path>
    <path fill="none" stroke-linejoin="round" stroke-linecap="round" stroke-miterlimit="4" stroke-width="2.6667" d="M8 8l16 16"></path>
  </symbol>
  <symbol version="1.1" xmlns="http://www.w3.org/2000/svg" viewBox="0 0 32 32" id="x-search">
    <title>x-search</title>
    <path fill="none" stroke-linejoin="round" stroke-linecap="round" stroke-miterlimit="4" stroke-width="3.5556" d="M24 8l-16 16"></path>
    <path fill="none" stroke-linejoin="round" stroke-linecap="round" stroke-miterlimit="4" stroke-width="3.5556" d="M8 8l16 16"></path>
  </symbol>
  <symbol version="1.1" xmlns="http://www.w3.org/2000/svg" viewBox="0 0 48 32" id="filter-arrow">
    <title>filter-arrow</title>
    <path fill="none" stroke-linejoin="round" stroke-linecap="round" stroke-miterlimit="4" stroke-width="8" stroke="#000" d="M6 7l18 18 18-18"></path>
  </symbol>
  <symbol version="1.1" xmlns="http://www.w3.org/2000/svg" viewBox="0 0 32 32" id="hamburger">
    <title>hamburger</title>
    <path fill="none" stroke-linejoin="round" stroke-linecap="round" stroke-miterlimit="4" stroke-width="2"  d="M28 13.333h-24"></path>
    <path fill="none" stroke-linejoin="round" stroke-linecap="round" stroke-miterlimit="4" stroke-width="2"  d="M28 8h-24"></path>
    <path fill="none" stroke-linejoin="round" stroke-linecap="round" stroke-miterlimit="4" stroke-width="2"  d="M28 18.667h-24"></path>
    <path fill="none" stroke-linejoin="round" stroke-linecap="round" stroke-miterlimit="4" stroke-width="2"  d="M28 24h-24"></path>
  </symbol>
  <symbol version="1.1" xmlns="http://www.w3.org/2000/svg" viewBox="0 0 37 32" id="hat">
    <title>hat</title>
    <path fill="#9bb537" d="M7.325 12.723h23.133v17.735h-23.133v-17.735z"></path>
    <path fill="#9bb537" d="M16.578 11.373c0 4.578-3.711 8.289-8.289 8.289s-8.289-3.711-8.289-8.289c0-4.578 3.711-8.289 8.289-8.289s8.289 3.711 8.289 8.289z"></path>
    <path fill="#9bb537" d="M26.988 8.289c0 4.578-3.711 8.289-8.289 8.289s-8.289-3.711-8.289-8.289c0-4.578 3.711-8.289 8.289-8.289s8.289 3.711 8.289 8.289z"></path>
    <path fill="#9bb537" d="M37.398 11.373c0 4.578-3.711 8.289-8.289 8.289s-8.289-3.711-8.289-8.289c0-4.578 3.711-8.289 8.289-8.289s8.289 3.711 8.289 8.289z"></path>
    <path fill="#f8f8f8" d="M7.325 29.301h23.133v2.036c0 0.366-0.324 0.663-0.723 0.663h-21.687c-0.399 0-0.723-0.297-0.723-0.663v-2.036z"></path>
    <path fill="#f8f8f8" d="M14.265 10.36c0-0.611 0.432-1.107 0.964-1.107s0.964 0.495 0.964 1.107v5.112c0 0.611-0.432 1.107-0.964 1.107s-0.964-0.495-0.964-1.107v-5.112z"></path>
    <path fill="#f8f8f8" d="M17.349 10.36c0-0.611 0.604-1.107 1.349-1.107s1.349 0.495 1.349 1.107v5.112c0 0.611-0.604 1.107-1.349 1.107s-1.349-0.495-1.349-1.107v-5.112z"></path>
    <path fill="#f8f8f8" d="M21.205 10.36c0-0.611 0.432-1.107 0.964-1.107s0.964 0.495 0.964 1.107v5.112c0 0.611-0.432 1.107-0.964 1.107s-0.964-0.495-0.964-1.107v-5.112z"></path>
    <path fill="#050505" d="M28.184 3.131c0.289-0.030 0.581-0.045 0.878-0.045 3.714 0 6.861 2.413 7.938 5.746-0.289 0.030-0.581 0.045-0.878 0.045-3.714 0-6.861-2.413-7.938-5.746z"></path>
  </symbol>
  <symbol version="1.1" xmlns="http://www.w3.org/2000/svg" width="22" height="22" viewBox="0 0 22 22" id="heart">
    <title>heart</title>
    <path opacity="0.5" fill-rule="evenodd" clip-rule="evenodd" d="M10.9939 4.70783C9.16115 2.5652 6.10493 1.98884 3.80863 3.95085C1.51234 5.91285 1.18905 9.19323 2.99234 11.5137C4.49166 13.443 9.02912 17.5121 10.5163 18.8291C10.6826 18.9764 10.7658 19.0501 10.8629 19.0791C10.9475 19.1043 11.0402 19.1043 11.1249 19.0791C11.2219 19.0501 11.3051 18.9764 11.4715 18.8291C12.9586 17.5121 17.4961 13.443 18.9954 11.5137C20.7987 9.19323 20.5149 5.89221 18.1791 3.95085C15.8434 2.00948 12.8266 2.5652 10.9939 4.70783Z" stroke="#F8F8F8" stroke-width="2" stroke-linecap="round" stroke-linejoin="round"/>
  </symbol>
  <symbol version="1.1" xmlns="http://www.w3.org/2000/svg" viewBox="0 0 18 32" id="left-arrow-pagination">
    <title>left-arrow-pagination</title>
    <path d="M5.943 17.623c-0.214-0.212-0.384-0.465-0.5-0.744s-0.176-0.577-0.176-0.879c0-0.302 0.060-0.601 0.176-0.879s0.286-0.531 0.5-0.744l10.491-10.469c0.214-0.212 0.384-0.465 0.5-0.744s0.176-0.577 0.176-0.879c0-0.302-0.060-0.601-0.176-0.879s-0.286-0.531-0.5-0.744c-0.428-0.426-1.008-0.665-1.611-0.665s-1.183 0.239-1.611 0.665l-10.491 10.491c-1.284 1.286-2.005 3.029-2.005 4.846s0.721 3.56 2.005 4.846l10.491 10.491c0.426 0.422 1 0.66 1.6 0.663 0.301 0.002 0.599-0.056 0.877-0.17s0.532-0.281 0.745-0.493c0.214-0.213 0.384-0.465 0.5-0.744s0.176-0.577 0.176-0.879-0.060-0.6-0.176-0.879c-0.116-0.279-0.286-0.531-0.5-0.744l-10.491-10.469z"></path>
  </symbol>
  <symbol version="1.1" xmlns="http://www.w3.org/2000/svg" viewBox="0 0 18 32" id="right-arrow-pagination">
    <title>right-arrow-pagination</title>
    <path d="M12.343 17.623c0.214-0.212 0.384-0.465 0.5-0.744s0.176-0.577 0.176-0.879c0-0.302-0.060-0.601-0.176-0.879s-0.286-0.531-0.5-0.744l-10.491-10.469c-0.214-0.212-0.384-0.465-0.5-0.744s-0.176-0.577-0.176-0.879c0-0.302 0.060-0.601 0.176-0.879s0.286-0.531 0.5-0.744c0.428-0.426 1.008-0.665 1.611-0.665s1.183 0.239 1.611 0.665l10.491 10.491c1.284 1.286 2.005 3.029 2.005 4.846s-0.721 3.56-2.005 4.846l-10.491 10.491c-0.426 0.422-1 0.66-1.6 0.663-0.301 0.002-0.599-0.056-0.877-0.17s-0.532-0.281-0.745-0.493c-0.214-0.213-0.384-0.465-0.5-0.744s-0.176-0.577-0.176-0.879 0.060-0.6 0.176-0.879c0.116-0.279 0.286-0.531 0.5-0.744l10.491-10.469z"></path>
  </symbol>
  <symbol version="1.1" xmlns="http://www.w3.org/2000/svg" viewBox="0 0 32 32" id="search">
    <title>search</title>
    <path d="M30.565 28.436l-5.565-5.52c2.16-2.693 3.206-6.112 2.923-9.553s-1.874-6.643-4.445-8.947c-2.571-2.304-5.927-3.536-9.379-3.441s-6.735 1.508-9.177 3.949c-2.441 2.441-3.855 5.725-3.949 9.177s1.137 6.808 3.441 9.379c2.304 2.571 5.506 4.162 8.947 4.445s6.86-0.763 9.553-2.923l5.52 5.52c0.139 0.141 0.305 0.252 0.488 0.328s0.379 0.115 0.577 0.115 0.394-0.039 0.577-0.115c0.183-0.076 0.349-0.188 0.488-0.328 0.27-0.28 0.421-0.654 0.421-1.043s-0.151-0.763-0.421-1.042zM14.5 25.001c-2.077 0-4.107-0.616-5.833-1.77s-3.073-2.794-3.867-4.712c-0.795-1.919-1.003-4.030-0.598-6.067s1.405-3.908 2.874-5.376c1.468-1.468 3.339-2.468 5.376-2.874s4.148-0.197 6.067 0.598c1.919 0.795 3.558 2.141 4.712 3.867s1.77 3.757 1.77 5.833c0 2.785-1.106 5.455-3.075 7.425s-4.64 3.075-7.425 3.075z"></path>
  </symbol>
  <symbol version="1.1" xmlns="http://www.w3.org/2000/svg" viewBox="0 0 32 32" id="shopping-cart">
    <title>shopping-cart</title>
    <path stroke-linejoin="round" stroke-linecap="round" stroke-miterlimit="4" stroke-width="2.6667" d="M12 29.333c0.736 0 1.333-0.597 1.333-1.333s-0.597-1.333-1.333-1.333c-0.736 0-1.333 0.597-1.333 1.333s0.597 1.333 1.333 1.333z"></path>
    <path stroke-linejoin="round" stroke-linecap="round" stroke-miterlimit="4" stroke-width="2.6667" d="M26.667 29.333c0.736 0 1.333-0.597 1.333-1.333s-0.597-1.333-1.333-1.333c-0.736 0-1.333 0.597-1.333 1.333s0.597 1.333 1.333 1.333z"></path>
    <path fill="none" stroke-linejoin="round" stroke-linecap="round" stroke-miterlimit="4" stroke-width="2.4" d="M1.333 1.333h5.333l3.573 17.853c0.122 0.614 0.456 1.165 0.943 1.558s1.098 0.601 1.723 0.589h12.96c0.626 0.012 1.236-0.197 1.723-0.589s0.821-0.944 0.943-1.558l2.133-11.187h-22.667"></path>
  </symbol>
  <symbol version="1.1" xmlns="http://www.w3.org/2000/svg" viewBox="0 0 34 32" id="star">
    <title>star</title>
    <path d="M14.89 2.282c0.737-2.268 3.945-2.268 4.682 0l2.080 6.402c0.33 1.014 1.275 1.701 2.341 1.701h6.731c2.384 0 3.376 3.051 1.447 4.453l-5.446 3.957c-0.863 0.627-1.224 1.738-0.894 2.752l2.080 6.402c0.737 2.268-1.859 4.154-3.788 2.752l-5.446-3.957c-0.863-0.627-2.031-0.627-2.894 0l-5.446 3.957c-1.929 1.402-4.525-0.484-3.788-2.752l2.080-6.402c0.33-1.014-0.031-2.125-0.894-2.752l-5.446-3.957c-1.929-1.402-0.938-4.453 1.447-4.453h6.731c1.066 0 2.012-0.687 2.341-1.701l2.080-6.402z"></path>
  </symbol>
  <symbol version="1.1" xmlns="http://www.w3.org/2000/svg" viewBox="0 0 48 32" id="switch-green">
    <title>switch-green</title>
    <path fill="#000" d="M11.294 6.902h16.314c3.465 0 6.275 2.809 6.275 6.274s-2.809 6.275-6.274 6.275h-16.314c-3.465 0-6.274-2.809-6.274-6.274s2.809-6.274 6.274-6.274z"></path>
    <path fill="#f3f3f3" d="M33.506 13.176c0 3.257-2.641 5.898-5.898 5.898s-5.898-2.641-5.898-5.898c0-3.257 2.641-5.898 5.898-5.898s5.898 2.641 5.898 5.898z"></path>
  </symbol>
  <symbol version="1.1" xmlns="http://www.w3.org/2000/svg" width="100%" height="100%" viewBox="100%" id="switch-grey">
    <title>switch-grey</title>
    <path fill="#cecdcd" d="M13.176 6.902h16.314c3.465 0 6.274 2.809 6.274 6.274s-2.809 6.275-6.274 6.275h-16.314c-3.465 0-6.274-2.809-6.274-6.274s2.809-6.274 6.274-6.274z"></path>
    <path fill="#f8f8f8" d="M19.074 13.177c0 3.257-2.641 5.898-5.898 5.898s-5.898-2.641-5.898-5.898c0-3.257 2.641-5.898 5.898-5.898s5.898 2.641 5.898 5.898z"></path>
  </symbol>
  <symbol version="1.1" xmlns="http://www.w3.org/2000/svg" id="arrow-up" viewBox="0 0 32 32">
    <title>arrow-up</title>
    <path fill="#000" d="M16 6.594l-0.719 0.688-12.5 12.5 1.438 1.438 11.781-11.781 11.781 11.781 1.438-1.438-12.5-12.5z"></path>
  </symbol>
</svg>